# Blender v2.78 (sub 0) OBJ File: 'Wall.blend'
# www.blender.org
mtllib Wall.mtl
o Plane
v -0.423133 -1.028867 -1.028867
v -0.423133 1.028867 -1.028867
v -0.423133 -1.028867 1.028867
v -0.423133 1.028867 1.028867
v 0.423132 -1.028867 -1.028867
v 0.423132 1.028867 -1.028867
v 0.423132 -1.028867 1.028867
v 0.423132 1.028867 1.028867
v -0.436106 -1.035354 0.666667
v -0.436106 -1.035354 0.333333
v -0.436106 -1.035354 0.000000
v -0.436107 -1.035354 -0.333333
v -0.436107 -1.035354 -0.666667
v -0.436107 -0.666667 -1.035354
v -0.436107 -0.333333 -1.035354
v -0.436107 0.000000 -1.035354
v -0.436107 0.333333 -1.035354
v -0.436107 0.666667 -1.035354
v -0.436107 1.035354 -0.666667
v -0.436107 1.035354 -0.333333
v -0.436106 1.035354 0.000000
v -0.436106 1.035354 0.333333
v -0.436106 1.035354 0.666667
v -0.436106 0.666667 1.035354
v -0.436106 0.333333 1.035354
v -0.436106 -0.000000 1.035354
v -0.436106 -0.333333 1.035354
v -0.436106 -0.666667 1.035354
v 0.436106 -1.035354 0.666667
v 0.436106 -1.035354 0.333333
v 0.436106 -1.035354 0.000000
v 0.436106 -1.035354 -0.333333
v 0.436106 -1.035354 -0.666667
v 0.436106 -0.666667 -1.035354
v 0.436106 -0.333333 -1.035354
v 0.436106 0.000000 -1.035354
v 0.436106 0.333333 -1.035354
v 0.436106 0.666667 -1.035354
v 0.436106 1.035354 -0.666667
v 0.436106 1.035354 -0.333333
v 0.436106 1.035354 0.000000
v 0.436106 1.035354 0.333333
v 0.436106 1.035354 0.666667
v 0.436106 0.666667 1.035354
v 0.436106 0.333333 1.035354
v 0.436106 -0.000000 1.035354
v 0.436106 -0.333333 1.035354
v 0.436106 -0.666667 1.035354
v -0.243599 -1.035354 1.035354
v -0.121800 -1.035354 1.035354
v -0.000000 -1.035354 1.035354
v 0.121799 -1.035354 1.035354
v 0.243598 -1.035354 1.035354
v 0.243598 1.035354 1.035354
v 0.121799 1.035354 1.035354
v -0.000000 1.035354 1.035354
v -0.121800 1.035354 1.035354
v -0.243599 1.035354 1.035354
v -0.243599 1.035354 -1.035354
v -0.121800 1.035354 -1.035354
v -0.000000 1.035354 -1.035354
v 0.121799 1.035354 -1.035354
v 0.243598 1.035354 -1.035354
v 0.243598 -1.035354 -1.035354
v 0.121799 -1.035354 -1.035354
v -0.000000 -1.035354 -1.035354
v -0.121800 -1.035354 -1.035354
v -0.243599 -1.035354 -1.035354
v 0.465397 -0.666667 -0.666667
v 0.465397 -0.666667 -0.333333
v 0.465398 -0.666667 0.000000
v 0.465398 -0.666667 0.333333
v 0.465398 -0.666667 0.666667
v 0.465397 -0.333333 -0.666667
v 0.465397 -0.333333 -0.333333
v 0.465398 -0.333333 0.000000
v 0.465398 -0.333333 0.333333
v 0.465398 -0.333333 0.666667
v 0.465397 0.000000 -0.666667
v 0.465397 0.000000 -0.333333
v 0.465398 0.000000 0.000000
v 0.465398 -0.000000 0.333333
v 0.465398 -0.000000 0.666667
v 0.465397 0.333333 -0.666667
v 0.465397 0.333333 -0.333333
v 0.465398 0.333333 0.000000
v 0.465398 0.333333 0.333333
v 0.465398 0.333333 0.666667
v 0.465397 0.666667 -0.666667
v 0.465397 0.666667 -0.333333
v 0.465398 0.666667 0.000000
v 0.465398 0.666667 0.333333
v 0.465398 0.666667 0.666667
v -0.465398 -0.666667 -0.666667
v -0.465398 -0.333333 -0.666667
v -0.465398 0.000000 -0.666667
v -0.465398 0.333333 -0.666667
v -0.465398 0.666667 -0.666667
v -0.465398 -0.666667 -0.333333
v -0.465398 -0.333333 -0.333333
v -0.465398 0.000000 -0.333333
v -0.465398 0.333333 -0.333333
v -0.465398 0.666667 -0.333333
v -0.465398 -0.666667 0.000000
v -0.465398 -0.333333 0.000000
v -0.465398 0.000000 0.000000
v -0.465398 0.333333 0.000000
v -0.465398 0.666667 0.000000
v -0.465398 -0.666667 0.333333
v -0.465398 -0.333333 0.333333
v -0.465398 0.000000 0.333333
v -0.465398 0.333333 0.333333
v -0.465398 0.666667 0.333333
v -0.465398 -0.666667 0.666667
v -0.465398 -0.333333 0.666667
v -0.465398 0.000000 0.666667
v -0.465398 0.333333 0.666667
v -0.465398 0.666667 0.666667
vt 0.8333 0.8333
vt 0.9999 0.9999
vt 0.9999 0.8333
vt 0.8333 0.8333
vt 0.9999 0.9999
vt 0.8333 0.9999
vt 0.8115 1.0051
vt 0.7960 0.6251
vt 1.0026 0.8191
vt 0.3196 0.6497
vt 0.0067 0.6497
vt 0.0067 0.8110
vt 0.1593 0.6487
vt 0.1654 1.0043
vt 0.0018 0.7904
vt 0.1667 0.8333
vt 0.0001 0.9999
vt 0.0001 0.8333
vt 0.3334 0.8333
vt 0.1667 0.9999
vt 0.5000 0.8333
vt 0.3334 0.9999
vt 0.6666 0.9999
vt 0.5000 0.9999
vt 0.6666 0.8333
vt 0.0001 0.0001
vt 0.1667 0.1667
vt 0.0001 0.1667
vt 0.0001 0.3334
vt 0.1667 0.3334
vt 0.0001 0.5000
vt 0.1667 0.5000
vt 0.0001 0.6666
vt 0.1667 0.6666
vt 0.3334 0.0001
vt 0.1667 0.0001
vt 0.3334 0.1667
vt 0.3334 0.3334
vt 0.3334 0.6666
vt 0.5000 0.0001
vt 0.5000 0.3334
vt 0.3334 0.5000
vt 0.5000 0.6666
vt 0.6666 0.0001
vt 0.5000 0.1667
vt 0.6666 0.1667
vt 0.6666 0.3334
vt 0.5000 0.5000
vt 0.6666 0.5000
vt 0.8333 0.0001
vt 0.8333 0.3334
vt 0.8333 0.5000
vt 0.6666 0.6666
vt 0.8333 0.6666
vt 0.9999 0.0001
vt 0.8333 0.1667
vt 0.9999 0.1667
vt 0.9999 0.3334
vt 0.9999 0.5000
vt 0.9999 0.6666
vt 0.8333 0.1667
vt 0.9999 0.0001
vt 0.8333 0.0001
vt 0.8333 0.3334
vt 0.9999 0.1667
vt 0.8333 0.5000
vt 0.9999 0.3334
vt 0.8333 0.6666
vt 0.9999 0.5000
vt 0.9999 0.6666
vt 0.0001 0.0001
vt 0.1667 0.1667
vt 0.1667 0.0001
vt 0.3334 0.0001
vt 0.3334 0.1667
vt 0.5000 0.0001
vt 0.5000 0.1667
vt 0.6666 0.0001
vt 0.6666 0.1667
vt 0.0001 0.3334
vt 0.0001 0.1667
vt 0.1667 0.3334
vt 0.3334 0.3334
vt 0.5000 0.3334
vt 0.6666 0.3334
vt 0.0001 0.5000
vt 0.1667 0.5000
vt 0.3334 0.5000
vt 0.5000 0.5000
vt 0.6666 0.5000
vt 0.0001 0.6666
vt 0.1667 0.6666
vt 0.3334 0.6666
vt 0.5000 0.6666
vt 0.6666 0.6666
vt 0.0001 0.8333
vt 0.1667 0.8333
vt 0.3334 0.8333
vt 0.5000 0.8333
vt 0.6666 0.8333
vt 0.0001 0.9999
vt 0.3334 0.9999
vt 0.5000 0.9999
vt 0.6666 0.9999
vt 0.8333 0.9999
vt 0.3196 0.1657
vt 0.1632 -0.0127
vt 0.2069 -0.0127
vt 0.9999 0.8333
vt 0.0018 0.7588
vt 0.0018 0.7064
vt 0.1599 0.6498
vt 0.0043 0.6290
vt 0.1676 1.0051
vt 0.0018 0.8111
vt 0.0043 0.9932
vt 0.0018 0.9158
vt 0.0018 0.8635
vt 0.3146 0.6674
vt 0.6366 0.6462
vt 0.6505 1.0051
vt 1.0004 0.6489
vt 1.0026 0.7212
vt 1.0026 0.8680
vt 1.0026 0.7702
vt 0.4663 0.6568
vt 0.3286 1.0051
vt 0.4896 1.0051
vt 1.0026 0.9170
vt 0.9981 0.9919
vt 0.1195 -0.0127
vt 0.0758 -0.0127
vt 0.0067 0.1657
vt 0.0114 -0.0096
vt 0.0067 0.4884
vt 0.3196 0.4884
vt 0.3196 0.1657
vt 0.1632 -0.0127
vt 0.3150 -0.0096
vt 0.2506 -0.0127
vt 0.2069 -0.0127
vt 0.0067 0.3270
vt 0.0114 0.9863
vt 0.0758 0.9895
vt 0.1195 0.9895
vt 0.1632 0.9895
vt 0.3196 0.3270
vt 0.3196 0.8110
vt 0.2506 0.9895
vt 0.3150 0.9863
vt 0.2069 0.9895
vt 1.0008 0.8626
vt 1.0008 0.9127
vt 0.8117 1.0071
vt 0.9965 0.9891
vt 0.7982 0.6263
vt 0.9996 0.8153
vt 1.0014 0.6472
vt 1.0033 0.7124
vt 0.9984 0.7597
vt 0.6520 1.0015
vt 0.3288 1.0071
vt 0.3128 0.6683
vt 0.0053 0.9891
vt 0.0026 0.9170
vt 0.0018 0.7235
vt 0.0026 0.8502
vt 0.4861 1.0071
vt 0.6372 0.6459
vt 0.4640 0.6571
vt 0.0018 0.7289
vt 0.0049 0.6301
vt 0.1667 0.9999
vt 0.1195 0.9895
vt 0.0758 0.9895
vt 0.0067 0.8110
vt 0.0114 0.9863
vt 0.0067 0.4884
vt 0.0067 0.3270
vt 0.3196 0.3270
vt 0.3196 0.8110
vt 0.1632 0.9895
vt 0.3150 0.9863
vt 0.2506 0.9895
vt 0.2069 0.9895
vt 0.0067 0.6497
vt 0.0067 0.1657
vt 0.0114 -0.0096
vt 0.0758 -0.0127
vt 0.1195 -0.0127
vt 0.3196 0.6497
vt 0.3196 0.4884
vt 0.2506 -0.0127
vt 0.3150 -0.0096
vn -0.9988 0.0343 0.0343
vn -0.5675 0.5822 0.5822
vn -0.6825 0.7307 0.0144
vn 0.9988 0.0343 0.0343
vn 0.5675 0.5822 0.5822
vn 0.6825 0.0144 0.7307
vn -0.6825 0.0144 0.7307
vn 0.0000 0.7071 0.7071
vn -0.6785 -0.7345 0.0000
vn 0.6785 -0.7345 0.0000
vn 0.6825 -0.7307 0.0144
vn -0.6825 -0.0144 -0.7307
vn 0.6825 -0.0144 -0.7307
vn 0.0000 -0.7071 -0.7071
vn 0.9988 -0.0343 0.0343
vn 0.5675 -0.5822 0.5822
vn 0.9992 0.0000 0.0396
vn 0.6825 -0.0144 0.7307
vn 0.6785 0.0000 0.7345
vn 0.5675 -0.5822 -0.5822
vn 0.9988 -0.0343 -0.0343
vn 0.6825 -0.7307 -0.0144
vn 0.9992 -0.0396 0.0000
vn 0.6785 0.0000 -0.7345
vn 0.9992 0.0000 -0.0396
vn 1.0000 0.0000 0.0000
vn 0.6825 0.0144 -0.7307
vn 0.9992 0.0396 0.0000
vn 0.5675 0.5822 -0.5822
vn 0.9988 0.0343 -0.0343
vn 0.6825 0.7307 -0.0144
vn 0.6785 0.7345 0.0000
vn -0.9988 0.0343 -0.0343
vn -0.5675 0.5822 -0.5822
vn -0.6825 0.0144 -0.7307
vn -0.9992 0.0396 0.0000
vn -0.6825 0.7307 -0.0144
vn -0.6785 0.7345 0.0000
vn -0.5675 -0.5822 -0.5822
vn -0.9988 -0.0343 -0.0343
vn -0.6785 0.0000 -0.7345
vn -0.9992 0.0000 -0.0396
vn -0.6825 -0.7307 -0.0144
vn -0.9992 -0.0396 0.0000
vn -1.0000 0.0000 0.0000
vn -0.6825 -0.7307 0.0144
vn -0.9988 -0.0343 0.0343
vn -0.9992 0.0000 0.0396
vn -0.5675 -0.5822 0.5822
vn -0.6785 0.0000 0.7345
vn 0.0000 0.7071 -0.7071
vn 0.6825 0.7307 0.0144
vn 0.0000 -0.7071 0.7071
vn 0.0175 -0.7070 0.7070
vn -0.6825 -0.0144 0.7307
vn -0.0175 -0.7070 0.7070
vn 0.0175 0.7070 0.7070
vn -0.0175 0.7070 0.7070
vn 0.0175 -0.7070 -0.7070
vn -0.0175 -0.7070 -0.7070
vn 0.0175 0.7070 -0.7070
vn -0.0175 0.7070 -0.7070
usemtl Material.001
s 1
f 118/1/1 4/2/2 23/3/3
f 93/4/4 8/5/5 44/6/6
f 24/7/7 44/8/6 56/9/8
f 10/10/9 30/11/10 29/12/11
f 14/13/12 34/14/13 66/15/14
f 73/16/15 7/17/16 29/18/11
f 78/19/17 48/20/18 73/16/15
f 83/21/17 47/22/19 78/19/17
f 83/21/17 45/23/19 46/24/19
f 93/4/4 45/23/19 88/25/17
f 5/26/20 69/27/21 33/28/22
f 69/27/21 32/29/10 33/28/22
f 70/30/23 31/31/10 32/29/10
f 71/32/23 30/33/10 31/31/10
f 72/34/23 29/18/11 30/33/10
f 35/35/24 69/27/21 34/36/13
f 74/37/25 70/30/23 69/27/21
f 75/38/26 71/32/23 70/30/23
f 71/32/23 77/39/26 72/34/23
f 77/39/26 73/16/15 72/34/23
f 36/40/24 74/37/25 35/35/24
f 74/37/25 80/41/26 75/38/26
f 80/41/26 76/42/26 75/38/26
f 76/42/26 82/43/26 77/39/26
f 82/43/26 78/19/17 77/39/26
f 37/44/24 79/45/25 36/40/24
f 84/46/25 80/41/26 79/45/25
f 85/47/26 81/48/26 80/41/26
f 86/49/26 82/43/26 81/48/26
f 82/43/26 88/25/17 83/21/17
f 38/50/27 84/46/25 37/44/24
f 84/46/25 90/51/28 85/47/26
f 90/51/28 86/49/26 85/47/26
f 91/52/28 87/53/26 86/49/26
f 92/54/28 88/25/17 87/53/26
f 6/55/29 89/56/30 38/50/27
f 39/57/31 90/51/28 89/56/30
f 40/58/32 91/52/28 90/51/28
f 41/59/32 92/54/28 91/52/28
f 42/60/32 93/4/4 92/54/28
f 98/61/33 2/62/34 18/63/35
f 103/64/36 19/65/37 98/61/33
f 108/66/36 20/67/38 103/64/36
f 113/68/36 21/69/38 108/66/36
f 118/1/1 22/70/38 113/68/36
f 1/71/39 94/72/40 14/73/12
f 94/72/40 15/74/41 14/73/12
f 95/75/42 16/76/41 15/74/41
f 96/77/42 17/78/41 16/76/41
f 97/79/42 18/63/35 17/78/41
f 12/80/9 94/72/40 13/81/43
f 99/82/44 95/75/42 94/72/40
f 100/83/45 96/77/42 95/75/42
f 101/84/45 97/79/42 96/77/42
f 102/85/45 98/61/33 97/79/42
f 11/86/9 99/82/44 12/80/9
f 104/87/44 100/83/45 99/82/44
f 105/88/45 101/84/45 100/83/45
f 106/89/45 102/85/45 101/84/45
f 107/90/45 103/64/36 102/85/45
f 10/91/9 104/87/44 11/86/9
f 109/92/44 105/88/45 104/87/44
f 110/93/45 106/89/45 105/88/45
f 111/94/45 107/90/45 106/89/45
f 112/95/45 108/66/36 107/90/45
f 9/96/46 109/92/44 10/91/9
f 114/97/47 110/93/45 109/92/44
f 115/98/48 111/94/45 110/93/45
f 116/99/48 112/95/45 111/94/45
f 117/100/48 113/68/36 112/95/45
f 3/101/49 114/97/47 9/96/46
f 114/97/47 27/102/50 115/98/48
f 115/98/48 26/103/50 116/99/48
f 116/99/48 25/104/50 117/100/48
f 117/100/48 24/105/7 118/1/1
f 19/106/37 61/107/51 60/108/51
f 118/1/1 24/105/7 4/2/2
f 93/4/4 43/109/52 8/5/5
f 52/110/53 53/111/54 48/112/18
f 7/113/16 48/112/18 53/111/54
f 48/112/18 28/114/55 51/115/53
f 51/115/53 52/110/53 48/112/18
f 3/116/49 49/117/56 28/114/55
f 50/118/53 51/115/53 28/114/55
f 47/119/19 28/114/55 48/112/18
f 45/120/19 44/8/6 25/121/50
f 8/122/5 54/123/57 44/8/6
f 56/9/8 57/124/8 24/7/7
f 54/123/57 55/125/8 44/8/6
f 46/126/19 27/127/50 47/119/19
f 49/117/56 50/118/53 28/114/55
f 27/127/50 28/114/55 47/119/19
f 26/128/50 27/127/50 46/126/19
f 46/126/19 45/120/19 26/128/50
f 55/125/8 56/9/8 44/8/6
f 58/129/58 4/130/2 24/7/7
f 25/121/50 26/128/50 45/120/19
f 58/129/58 24/7/7 57/124/8
f 44/8/6 24/7/7 25/121/50
f 65/131/14 64/132/59 33/133/22
f 5/134/20 33/133/22 64/132/59
f 31/135/10 30/11/10 11/136/9
f 33/133/22 13/137/43 66/138/14
f 66/138/14 65/131/14 33/133/22
f 1/139/39 68/140/60 13/137/43
f 67/141/14 66/138/14 13/137/43
f 32/142/10 13/137/43 33/133/22
f 29/12/11 7/143/16 53/144/54
f 52/145/53 51/146/53 29/12/11
f 29/12/11 53/144/54 52/145/53
f 32/142/10 31/135/10 11/136/9
f 13/137/43 68/140/60 67/141/14
f 11/136/9 12/147/9 32/142/10
f 9/148/46 10/10/9 29/12/11
f 49/149/56 3/150/49 9/148/46
f 29/12/11 51/146/53 9/148/46
f 50/151/53 49/149/56 9/148/46
f 12/147/9 13/137/43 32/142/10
f 50/151/53 9/148/46 51/146/53
f 30/11/10 10/10/9 11/136/9
f 62/152/51 63/153/61 38/154/27
f 6/155/29 38/154/27 63/153/61
f 38/154/27 18/156/35 61/157/51
f 61/157/51 62/152/51 38/154/27
f 2/158/34 59/159/62 18/156/35
f 60/160/51 61/157/51 18/156/35
f 37/161/24 18/156/35 38/154/27
f 35/162/24 34/14/13 15/163/41
f 5/164/20 64/165/59 34/14/13
f 66/15/14 67/166/14 14/13/12
f 64/165/59 65/167/14 34/14/13
f 36/168/24 17/169/41 37/161/24
f 59/159/62 60/160/51 18/156/35
f 17/169/41 18/156/35 37/161/24
f 16/170/41 17/169/41 36/168/24
f 36/168/24 35/162/24 16/170/41
f 65/167/14 66/15/14 34/14/13
f 68/171/60 1/172/39 14/13/12
f 15/163/41 16/170/41 35/162/24
f 68/171/60 14/13/12 67/166/14
f 34/14/13 14/13/12 15/163/41
f 73/16/15 48/20/18 7/17/16
f 78/19/17 47/22/19 48/20/18
f 83/21/17 46/24/19 47/22/19
f 83/21/17 88/25/17 45/23/19
f 93/4/4 44/6/6 45/23/19
f 5/26/20 34/36/13 69/27/21
f 69/27/21 70/30/23 32/29/10
f 70/30/23 71/32/23 31/31/10
f 71/32/23 72/34/23 30/33/10
f 72/34/23 73/16/15 29/18/11
f 35/35/24 74/37/25 69/27/21
f 74/37/25 75/38/26 70/30/23
f 75/38/26 76/42/26 71/32/23
f 71/32/23 76/42/26 77/39/26
f 77/39/26 78/19/17 73/16/15
f 36/40/24 79/45/25 74/37/25
f 74/37/25 79/45/25 80/41/26
f 80/41/26 81/48/26 76/42/26
f 76/42/26 81/48/26 82/43/26
f 82/43/26 83/21/17 78/19/17
f 37/44/24 84/46/25 79/45/25
f 84/46/25 85/47/26 80/41/26
f 85/47/26 86/49/26 81/48/26
f 86/49/26 87/53/26 82/43/26
f 82/43/26 87/53/26 88/25/17
f 38/50/27 89/56/30 84/46/25
f 84/46/25 89/56/30 90/51/28
f 90/51/28 91/52/28 86/49/26
f 91/52/28 92/54/28 87/53/26
f 92/54/28 93/4/4 88/25/17
f 6/55/29 39/57/31 89/56/30
f 39/57/31 40/58/32 90/51/28
f 40/58/32 41/59/32 91/52/28
f 41/59/32 42/60/32 92/54/28
f 42/60/32 43/109/52 93/4/4
f 98/61/33 19/65/37 2/62/34
f 103/64/36 20/67/38 19/65/37
f 108/66/36 21/69/38 20/67/38
f 113/68/36 22/70/38 21/69/38
f 118/1/1 23/3/3 22/70/38
f 1/71/39 13/81/43 94/72/40
f 94/72/40 95/75/42 15/74/41
f 95/75/42 96/77/42 16/76/41
f 96/77/42 97/79/42 17/78/41
f 97/79/42 98/61/33 18/63/35
f 12/80/9 99/82/44 94/72/40
f 99/82/44 100/83/45 95/75/42
f 100/83/45 101/84/45 96/77/42
f 101/84/45 102/85/45 97/79/42
f 102/85/45 103/64/36 98/61/33
f 11/86/9 104/87/44 99/82/44
f 104/87/44 105/88/45 100/83/45
f 105/88/45 106/89/45 101/84/45
f 106/89/45 107/90/45 102/85/45
f 107/90/45 108/66/36 103/64/36
f 10/91/9 109/92/44 104/87/44
f 109/92/44 110/93/45 105/88/45
f 110/93/45 111/94/45 106/89/45
f 111/94/45 112/95/45 107/90/45
f 112/95/45 113/68/36 108/66/36
f 9/96/46 114/97/47 109/92/44
f 114/97/47 115/98/48 110/93/45
f 115/98/48 116/99/48 111/94/45
f 116/99/48 117/100/48 112/95/45
f 117/100/48 118/1/1 113/68/36
f 3/101/49 28/173/55 114/97/47
f 114/97/47 28/173/55 27/102/50
f 115/98/48 27/102/50 26/103/50
f 116/99/48 26/103/50 25/104/50
f 117/100/48 25/104/50 24/105/7
f 55/174/8 54/175/57 43/176/52
f 8/177/5 43/176/52 54/175/57
f 41/178/32 40/179/32 20/180/38
f 43/176/52 23/181/3 56/182/8
f 56/182/8 55/174/8 43/176/52
f 4/183/2 58/184/58 23/181/3
f 57/185/8 56/182/8 23/181/3
f 42/186/32 23/181/3 43/176/52
f 39/187/31 6/188/29 63/189/61
f 62/190/51 61/107/51 39/187/31
f 39/187/31 63/189/61 62/190/51
f 42/186/32 41/178/32 22/191/38
f 23/181/3 58/184/58 57/185/8
f 20/180/38 21/192/38 41/178/32
f 22/191/38 23/181/3 42/186/32
f 40/179/32 39/187/31 20/180/38
f 60/108/51 59/193/62 19/106/37
f 39/187/31 19/106/37 20/180/38
f 21/192/38 22/191/38 41/178/32
f 2/194/34 19/106/37 59/193/62
f 61/107/51 19/106/37 39/187/31
