# Blender v2.78 (sub 0) OBJ File: 'Wall.blend'
# www.blender.org
mtllib Wall-old.mtl
o Plane
v -0.460330 -0.995454 0.006273
v -0.460330 0.992015 0.006273
v -0.460330 -0.995454 1.993743
v -0.460330 0.992015 1.993743
v 0.448855 -0.995454 0.006273
v 0.448855 0.992015 0.006273
v 0.448855 -0.995454 1.993743
v 0.448855 0.992015 1.993743
v -0.474268 -1.001719 1.643910
v -0.474268 -1.001719 1.321959
v -0.474268 -1.001719 1.000008
v -0.474268 -1.001719 0.678057
v -0.474268 -1.001719 0.356106
v -0.474268 -0.645621 0.000008
v -0.474268 -0.323670 0.000008
v -0.474268 -0.001719 0.000008
v -0.474268 0.320232 0.000008
v -0.474268 0.642183 0.000008
v -0.474268 0.998281 0.356106
v -0.474268 0.998281 0.678057
v -0.474268 0.998281 1.000008
v -0.474268 0.998281 1.321959
v -0.474268 0.998281 1.643910
v -0.474268 0.642183 2.000008
v -0.474268 0.320232 2.000008
v -0.474268 -0.001719 2.000008
v -0.474268 -0.323670 2.000008
v -0.474268 -0.645621 2.000008
v 0.462793 -1.001719 1.643910
v 0.462793 -1.001719 1.321959
v 0.462793 -1.001719 1.000008
v 0.462793 -1.001719 0.678057
v 0.462793 -1.001719 0.356106
v 0.462793 -0.645621 0.000008
v 0.462793 -0.323670 0.000008
v 0.462793 -0.001719 0.000008
v 0.462793 0.320232 0.000008
v 0.462793 0.642183 0.000008
v 0.462793 0.998281 0.356106
v 0.462793 0.998281 0.678057
v 0.462793 0.998281 1.000008
v 0.462793 0.998281 1.321959
v 0.462793 0.998281 1.643910
v 0.462793 0.642183 2.000008
v 0.462793 0.320232 2.000008
v 0.462793 -0.001719 2.000008
v 0.462793 -0.323670 2.000008
v 0.462793 -0.645621 2.000008
v -0.267448 -1.001719 2.000008
v -0.136593 -1.001719 2.000008
v -0.005738 -1.001719 2.000008
v 0.125117 -1.001719 2.000008
v 0.255972 -1.001719 2.000008
v 0.255972 0.998281 2.000008
v 0.125117 0.998281 2.000008
v -0.005738 0.998281 2.000008
v -0.136593 0.998281 2.000008
v -0.267448 0.998281 2.000008
v -0.267448 0.998281 0.000008
v -0.136593 0.998281 0.000008
v -0.005738 0.998281 0.000008
v 0.125117 0.998281 0.000008
v 0.255972 0.998281 0.000008
v 0.255972 -1.001719 0.000008
v 0.125117 -1.001719 0.000008
v -0.005738 -1.001719 0.000008
v -0.136593 -1.001719 0.000008
v -0.267448 -1.001719 0.000008
v 0.494262 -0.645621 0.356106
v 0.494262 -0.645621 0.678057
v 0.494262 -0.645621 1.000008
v 0.494262 -0.645621 1.321959
v 0.494262 -0.645621 1.643910
v 0.494262 -0.323670 0.356106
v 0.494262 -0.323670 0.678057
v 0.494262 -0.323670 1.000008
v 0.494262 -0.323670 1.321959
v 0.494262 -0.323670 1.643910
v 0.494262 -0.001719 0.356106
v 0.494262 -0.001719 0.678057
v 0.494262 -0.001719 1.000008
v 0.494262 -0.001719 1.321959
v 0.494262 -0.001719 1.643910
v 0.494262 0.320232 0.356106
v 0.494262 0.320232 0.678057
v 0.494262 0.320232 1.000008
v 0.494262 0.320232 1.321959
v 0.494262 0.320232 1.643910
v 0.494262 0.642183 0.356106
v 0.494262 0.642183 0.678057
v 0.494262 0.642183 1.000008
v 0.494262 0.642183 1.321959
v 0.494262 0.642183 1.643910
v -0.505738 -0.645621 0.356106
v -0.505738 -0.323670 0.356106
v -0.505738 -0.001719 0.356106
v -0.505738 0.320232 0.356106
v -0.505738 0.642183 0.356106
v -0.505738 -0.645621 0.678057
v -0.505738 -0.323670 0.678057
v -0.505738 -0.001719 0.678057
v -0.505738 0.320232 0.678057
v -0.505738 0.642183 0.678057
v -0.505738 -0.645621 1.000008
v -0.505738 -0.323670 1.000008
v -0.505738 -0.001719 1.000008
v -0.505738 0.320232 1.000008
v -0.505738 0.642183 1.000008
v -0.505738 -0.645621 1.321959
v -0.505738 -0.323670 1.321959
v -0.505738 -0.001719 1.321959
v -0.505738 0.320232 1.321959
v -0.505738 0.642183 1.321959
v -0.505738 -0.645621 1.643910
v -0.505738 -0.323670 1.643910
v -0.505738 -0.001719 1.643910
v -0.505738 0.320232 1.643910
v -0.505738 0.642183 1.643910
vt 0.8333 0.8333
vt 0.9999 0.9999
vt 0.9999 0.8333
vt 0.8333 0.8333
vt 0.9999 0.9999
vt 0.8333 0.9999
vt 0.8115 1.0051
vt 1.0026 0.8191
vt 1.0026 0.8680
vt 0.3196 0.8110
vt 0.3196 0.6497
vt 0.0067 0.8110
vt 0.1593 0.6487
vt 0.0018 0.7904
vt 0.0018 0.7235
vt 0.1667 0.8333
vt 0.0001 0.9999
vt 0.0001 0.8333
vt 0.3334 0.9999
vt 0.1667 0.9999
vt 0.5000 0.8333
vt 0.3334 0.8333
vt 0.6666 0.8333
vt 0.5000 0.9999
vt 0.6666 0.9999
vt 0.0001 0.0001
vt 0.1667 0.1667
vt 0.0001 0.1667
vt 0.0001 0.3334
vt 0.1667 0.3334
vt 0.0001 0.5000
vt 0.1667 0.5000
vt 0.0001 0.6666
vt 0.1667 0.6666
vt 0.3334 0.0001
vt 0.1667 0.0001
vt 0.3334 0.1667
vt 0.3334 0.3334
vt 0.3334 0.5000
vt 0.3334 0.6666
vt 0.5000 0.0001
vt 0.5000 0.1667
vt 0.5000 0.3334
vt 0.5000 0.5000
vt 0.5000 0.6666
vt 0.6666 0.0001
vt 0.6666 0.1667
vt 0.6666 0.3334
vt 0.6666 0.5000
vt 0.6666 0.6666
vt 0.8333 0.0001
vt 0.8333 0.1667
vt 0.8333 0.5000
vt 0.9999 0.0001
vt 0.9999 0.1667
vt 0.8333 0.3334
vt 0.9999 0.3334
vt 0.9999 0.5000
vt 0.8333 0.6666
vt 0.9999 0.8333
vt 0.8333 0.1667
vt 0.9999 0.0001
vt 0.8333 0.0001
vt 0.8333 0.3334
vt 0.9999 0.1667
vt 0.8333 0.5000
vt 0.9999 0.3334
vt 0.8333 0.6666
vt 0.9999 0.5000
vt 0.9999 0.6666
vt 0.0001 0.0001
vt 0.1667 0.1667
vt 0.1667 0.0001
vt 0.3334 0.0001
vt 0.3334 0.1667
vt 0.5000 0.0001
vt 0.5000 0.1667
vt 0.6666 0.0001
vt 0.6666 0.1667
vt 0.0001 0.3334
vt 0.0001 0.1667
vt 0.1667 0.3334
vt 0.3334 0.3334
vt 0.5000 0.3334
vt 0.6666 0.3334
vt 0.0001 0.5000
vt 0.1667 0.5000
vt 0.3334 0.5000
vt 0.5000 0.5000
vt 0.6666 0.5000
vt 0.0001 0.6666
vt 0.1667 0.6666
vt 0.3334 0.6666
vt 0.5000 0.6666
vt 0.6666 0.6666
vt 0.0001 0.8333
vt 0.1667 0.8333
vt 0.3334 0.8333
vt 0.6666 0.8333
vt 0.0001 0.9999
vt 0.3334 0.9999
vt 0.5000 0.8333
vt 0.6666 0.9999
vt 0.0067 0.1657
vt 0.3196 0.3270
vt 0.0067 0.3270
vt 0.8333 0.9999
vt 0.0018 0.7588
vt 0.0018 0.7064
vt 0.1599 0.6498
vt 0.0043 0.6290
vt 0.4663 0.6568
vt 0.6366 0.6462
vt 0.6505 1.0051
vt 0.1676 1.0051
vt 0.0018 0.8111
vt 0.0043 0.9932
vt 0.0018 0.9158
vt 0.0018 0.8635
vt 0.3146 0.6674
vt 0.7960 0.6251
vt 1.0004 0.6489
vt 1.0026 0.7212
vt 1.0026 0.7702
vt 0.3286 1.0051
vt 0.4896 1.0051
vt 1.0026 0.9170
vt 0.9981 0.9919
vt 0.1195 -0.0127
vt 0.0758 -0.0127
vt 0.0067 0.1657
vt 0.0114 -0.0096
vt 0.0067 0.4884
vt 0.0067 0.6497
vt 0.3196 0.1657
vt 0.1632 -0.0127
vt 0.3150 -0.0096
vt 0.2506 -0.0127
vt 0.2069 -0.0127
vt 0.0067 0.3270
vt 0.0114 0.9863
vt 0.0758 0.9895
vt 0.1195 0.9895
vt 0.1632 0.9895
vt 0.3196 0.3270
vt 0.3196 0.4884
vt 0.3150 0.9863
vt 0.2506 0.9895
vt 0.2069 0.9895
vt 1.0008 0.8626
vt 1.0008 0.9127
vt 0.8117 1.0071
vt 0.9965 0.9891
vt 0.4861 1.0071
vt 0.3288 1.0071
vt 0.3128 0.6683
vt 0.7982 0.6263
vt 0.9996 0.8153
vt 1.0014 0.6472
vt 1.0033 0.7124
vt 0.9984 0.7597
vt 0.6520 1.0015
vt 0.1654 1.0043
vt 0.0053 0.9891
vt 0.0026 0.9170
vt 0.0026 0.8502
vt 0.6372 0.6459
vt 0.4640 0.6571
vt 0.0018 0.7289
vt 0.0049 0.6301
vt 0.9999 0.6666
vt 0.1667 0.9999
vt 0.5000 0.9999
vt 0.1195 0.9895
vt 0.0758 0.9895
vt 0.0067 0.8110
vt 0.0114 0.9863
vt 0.0067 0.4884
vt 0.3196 0.8110
vt 0.1632 0.9895
vt 0.3150 0.9863
vt 0.2506 0.9895
vt 0.2069 0.9895
vt 0.0067 0.6497
vt 0.3196 0.6497
vt 0.0114 -0.0096
vt 0.0758 -0.0127
vt 0.1195 -0.0127
vt 0.1632 -0.0127
vt 0.2069 -0.0127
vt 0.3196 0.1657
vt 0.2506 -0.0127
vt 0.3150 -0.0096
vt 0.3196 0.4884
vn -0.9985 0.0382 0.0382
vn -0.5620 0.5849 0.5849
vn -0.6797 0.7333 0.0160
vn 0.9985 0.0382 0.0382
vn 0.5620 0.5849 0.5849
vn 0.6797 0.0160 0.7333
vn -0.6797 0.0160 0.7333
vn 0.0000 0.7071 0.7071
vn -0.6797 -0.7333 0.0160
vn -0.6753 -0.7376 0.0000
vn 0.6797 -0.7333 0.0160
vn -0.6797 -0.0160 -0.7333
vn 0.0000 -0.7071 -0.7071
vn 0.9985 -0.0382 0.0382
vn 0.5620 -0.5849 0.5849
vn 0.6753 0.0000 0.7376
vn 0.6797 -0.0160 0.7333
vn 0.9990 0.0000 0.0440
vn 0.5620 -0.5849 -0.5849
vn 0.9985 -0.0382 -0.0382
vn 0.6797 -0.7333 -0.0160
vn 0.6753 -0.7376 0.0000
vn 0.9990 -0.0440 0.0000
vn 0.6753 0.0000 -0.7376
vn 0.6797 -0.0160 -0.7333
vn 0.9990 0.0000 -0.0440
vn 1.0000 0.0000 0.0000
vn 0.6797 0.0160 -0.7333
vn 0.9985 0.0382 -0.0382
vn 0.9990 0.0440 0.0000
vn 0.5620 0.5849 -0.5849
vn 0.6797 0.7333 -0.0160
vn 0.6753 0.7376 0.0000
vn 0.6797 0.7333 0.0160
vn -0.9985 0.0382 -0.0382
vn -0.5620 0.5849 -0.5849
vn -0.6797 0.0160 -0.7333
vn -0.9990 0.0440 0.0000
vn -0.6797 0.7333 -0.0160
vn -0.6753 0.7376 0.0000
vn -0.5620 -0.5849 -0.5849
vn -0.9985 -0.0382 -0.0382
vn -0.6753 0.0000 -0.7376
vn -0.9990 0.0000 -0.0440
vn -0.6797 -0.7333 -0.0160
vn -0.9990 -0.0440 0.0000
vn -1.0000 0.0000 0.0000
vn -0.9985 -0.0382 0.0382
vn -0.9990 0.0000 0.0440
vn -0.5620 -0.5849 0.5849
vn -0.6753 0.0000 0.7376
vn 0.0000 -0.7071 0.7071
vn 0.0151 -0.7070 0.7070
vn -0.6797 -0.0160 0.7333
vn -0.0151 -0.7070 0.7070
vn 0.0151 0.7070 0.7070
vn -0.0151 0.7070 0.7070
vn 0.0151 -0.7070 -0.7070
vn -0.0151 -0.7070 -0.7070
vn 0.0000 0.7071 -0.7071
vn 0.0151 0.7070 -0.7070
vn -0.0151 0.7070 -0.7070
usemtl Material.001
s 1
f 118/1/1 4/2/2 23/3/3
f 93/4/4 8/5/5 44/6/6
f 24/7/7 56/8/8 57/9/8
f 9/10/9 10/11/10 29/12/11
f 14/13/12 66/14/13 67/15/13
f 73/16/14 7/17/15 29/18/11
f 73/16/14 47/19/16 48/20/17
f 83/21/18 47/19/16 78/22/18
f 88/23/18 46/24/16 83/21/18
f 88/23/18 44/6/6 45/25/16
f 5/26/19 69/27/20 33/28/21
f 69/27/20 32/29/22 33/28/21
f 70/30/23 31/31/22 32/29/22
f 71/32/23 30/33/22 31/31/22
f 72/34/23 29/18/11 30/33/22
f 35/35/24 69/27/20 34/36/25
f 74/37/26 70/30/23 69/27/20
f 75/38/27 71/32/23 70/30/23
f 76/39/27 72/34/23 71/32/23
f 77/40/27 73/16/14 72/34/23
f 36/41/24 74/37/26 35/35/24
f 79/42/26 75/38/27 74/37/26
f 80/43/27 76/39/27 75/38/27
f 81/44/27 77/40/27 76/39/27
f 82/45/27 78/22/18 77/40/27
f 37/46/24 79/42/26 36/41/24
f 84/47/26 80/43/27 79/42/26
f 85/48/27 81/44/27 80/43/27
f 86/49/27 82/45/27 81/44/27
f 87/50/27 83/21/18 82/45/27
f 38/51/28 84/47/26 37/46/24
f 89/52/29 85/48/27 84/47/26
f 85/48/27 91/53/30 86/49/27
f 91/53/30 87/50/27 86/49/27
f 87/50/27 93/4/4 88/23/18
f 6/54/31 89/52/29 38/51/28
f 39/55/32 90/56/30 89/52/29
f 40/57/33 91/53/30 90/56/30
f 41/58/33 92/59/30 91/53/30
f 92/59/30 43/60/34 93/4/4
f 98/61/35 2/62/36 18/63/37
f 103/64/38 19/65/39 98/61/35
f 108/66/38 20/67/40 103/64/38
f 113/68/38 21/69/40 108/66/38
f 118/1/1 22/70/40 113/68/38
f 1/71/41 94/72/42 14/73/12
f 94/72/42 15/74/43 14/73/12
f 95/75/44 16/76/43 15/74/43
f 96/77/44 17/78/43 16/76/43
f 97/79/44 18/63/37 17/78/43
f 12/80/10 94/72/42 13/81/45
f 99/82/46 95/75/44 94/72/42
f 100/83/47 96/77/44 95/75/44
f 101/84/47 97/79/44 96/77/44
f 102/85/47 98/61/35 97/79/44
f 11/86/10 99/82/46 12/80/10
f 104/87/46 100/83/47 99/82/46
f 105/88/47 101/84/47 100/83/47
f 106/89/47 102/85/47 101/84/47
f 107/90/47 103/64/38 102/85/47
f 10/91/10 104/87/46 11/86/10
f 109/92/46 105/88/47 104/87/46
f 110/93/47 106/89/47 105/88/47
f 111/94/47 107/90/47 106/89/47
f 112/95/47 108/66/38 107/90/47
f 9/96/9 109/92/46 10/91/10
f 114/97/48 110/93/47 109/92/46
f 115/98/49 111/94/47 110/93/47
f 111/94/47 117/99/49 112/95/47
f 117/99/49 113/68/38 112/95/47
f 3/100/50 114/97/48 9/96/9
f 114/97/48 27/101/51 115/98/49
f 27/101/51 116/102/49 115/98/49
f 116/102/49 25/103/51 117/99/49
f 25/103/51 118/1/1 117/99/49
f 39/104/32 20/105/40 40/106/33
f 118/1/1 24/107/7 4/2/2
f 93/4/4 43/60/34 8/5/5
f 52/108/52 53/109/53 48/110/17
f 7/111/15 48/110/17 53/109/53
f 46/112/16 45/113/16 25/114/51
f 48/110/17 28/115/54 51/116/52
f 51/116/52 52/108/52 48/110/17
f 3/117/50 49/118/55 28/115/54
f 50/119/52 51/116/52 28/115/54
f 47/120/16 28/115/54 48/110/17
f 44/121/6 8/122/5 54/123/56
f 55/124/8 56/8/8 44/121/6
f 44/121/6 54/123/56 55/124/8
f 47/120/16 46/112/16 27/125/51
f 28/115/54 49/118/55 50/119/52
f 25/114/51 26/126/51 46/112/16
f 27/125/51 28/115/54 47/120/16
f 45/113/16 44/121/6 25/114/51
f 57/9/8 58/127/57 24/7/7
f 44/121/6 24/7/7 25/114/51
f 26/126/51 27/125/51 46/112/16
f 4/128/2 24/7/7 58/127/57
f 56/8/8 24/7/7 44/121/6
f 65/129/13 64/130/58 33/131/21
f 5/132/19 33/131/21 64/130/58
f 31/133/22 30/134/22 10/11/10
f 33/131/21 13/135/45 66/136/13
f 66/136/13 65/129/13 33/131/21
f 1/137/41 68/138/59 13/135/45
f 67/139/13 66/136/13 13/135/45
f 32/140/22 13/135/45 33/131/21
f 29/12/11 7/141/15 53/142/53
f 52/143/52 51/144/52 29/12/11
f 29/12/11 53/142/53 52/143/52
f 32/140/22 12/145/10 13/135/45
f 13/135/45 68/138/59 67/139/13
f 11/146/10 12/145/10 31/133/22
f 3/147/50 9/10/9 49/148/55
f 10/11/10 11/146/10 31/133/22
f 32/140/22 31/133/22 12/145/10
f 29/12/11 51/144/52 9/10/9
f 50/149/52 49/148/55 9/10/9
f 9/10/9 51/144/52 50/149/52
f 30/134/22 29/12/11 10/11/10
f 62/150/60 63/151/61 38/152/28
f 6/153/31 38/152/28 63/151/61
f 36/154/24 35/155/24 15/156/43
f 38/152/28 18/157/37 61/158/60
f 61/158/60 62/150/60 38/152/28
f 2/159/36 59/160/62 18/157/37
f 60/161/60 61/158/60 18/157/37
f 37/162/24 18/157/37 38/152/28
f 34/163/25 5/164/19 64/165/58
f 65/166/13 66/14/13 34/163/25
f 34/163/25 64/165/58 65/166/13
f 37/162/24 36/154/24 17/167/43
f 18/157/37 59/160/62 60/161/60
f 15/156/43 16/168/43 36/154/24
f 17/167/43 18/157/37 37/162/24
f 35/155/24 34/163/25 15/156/43
f 67/15/13 68/169/59 14/13/12
f 34/163/25 14/13/12 15/156/43
f 16/168/43 17/167/43 36/154/24
f 1/170/41 14/13/12 68/169/59
f 66/14/13 14/13/12 34/163/25
f 73/16/14 48/20/17 7/17/15
f 73/16/14 78/22/18 47/19/16
f 83/21/18 46/24/16 47/19/16
f 88/23/18 45/25/16 46/24/16
f 88/23/18 93/4/4 44/6/6
f 5/26/19 34/36/25 69/27/20
f 69/27/20 70/30/23 32/29/22
f 70/30/23 71/32/23 31/31/22
f 71/32/23 72/34/23 30/33/22
f 72/34/23 73/16/14 29/18/11
f 35/35/24 74/37/26 69/27/20
f 74/37/26 75/38/27 70/30/23
f 75/38/27 76/39/27 71/32/23
f 76/39/27 77/40/27 72/34/23
f 77/40/27 78/22/18 73/16/14
f 36/41/24 79/42/26 74/37/26
f 79/42/26 80/43/27 75/38/27
f 80/43/27 81/44/27 76/39/27
f 81/44/27 82/45/27 77/40/27
f 82/45/27 83/21/18 78/22/18
f 37/46/24 84/47/26 79/42/26
f 84/47/26 85/48/27 80/43/27
f 85/48/27 86/49/27 81/44/27
f 86/49/27 87/50/27 82/45/27
f 87/50/27 88/23/18 83/21/18
f 38/51/28 89/52/29 84/47/26
f 89/52/29 90/56/30 85/48/27
f 85/48/27 90/56/30 91/53/30
f 91/53/30 92/59/30 87/50/27
f 87/50/27 92/59/30 93/4/4
f 6/54/31 39/55/32 89/52/29
f 39/55/32 40/57/33 90/56/30
f 40/57/33 41/58/33 91/53/30
f 41/58/33 42/171/33 92/59/30
f 92/59/30 42/171/33 43/60/34
f 98/61/35 19/65/39 2/62/36
f 103/64/38 20/67/40 19/65/39
f 108/66/38 21/69/40 20/67/40
f 113/68/38 22/70/40 21/69/40
f 118/1/1 23/3/3 22/70/40
f 1/71/41 13/81/45 94/72/42
f 94/72/42 95/75/44 15/74/43
f 95/75/44 96/77/44 16/76/43
f 96/77/44 97/79/44 17/78/43
f 97/79/44 98/61/35 18/63/37
f 12/80/10 99/82/46 94/72/42
f 99/82/46 100/83/47 95/75/44
f 100/83/47 101/84/47 96/77/44
f 101/84/47 102/85/47 97/79/44
f 102/85/47 103/64/38 98/61/35
f 11/86/10 104/87/46 99/82/46
f 104/87/46 105/88/47 100/83/47
f 105/88/47 106/89/47 101/84/47
f 106/89/47 107/90/47 102/85/47
f 107/90/47 108/66/38 103/64/38
f 10/91/10 109/92/46 104/87/46
f 109/92/46 110/93/47 105/88/47
f 110/93/47 111/94/47 106/89/47
f 111/94/47 112/95/47 107/90/47
f 112/95/47 113/68/38 108/66/38
f 9/96/9 114/97/48 109/92/46
f 114/97/48 115/98/49 110/93/47
f 115/98/49 116/102/49 111/94/47
f 111/94/47 116/102/49 117/99/49
f 117/99/49 118/1/1 113/68/38
f 3/100/50 28/172/54 114/97/48
f 114/97/48 28/172/54 27/101/51
f 27/101/51 26/173/51 116/102/49
f 116/102/49 26/173/51 25/103/51
f 25/103/51 24/107/7 118/1/1
f 55/174/8 54/175/56 43/176/34
f 8/177/5 43/176/34 54/175/56
f 41/178/33 40/106/33 20/105/40
f 43/176/34 23/179/3 56/180/8
f 56/180/8 55/174/8 43/176/34
f 4/181/2 58/182/57 23/179/3
f 57/183/8 56/180/8 23/179/3
f 42/184/33 41/178/33 22/185/40
f 39/104/32 6/186/31 63/187/61
f 63/187/61 62/188/60 39/104/32
f 61/189/60 60/190/60 19/191/39
f 59/192/62 2/193/36 19/191/39
f 20/105/40 21/194/40 41/178/33
f 59/192/62 19/191/39 60/190/60
f 62/188/60 61/189/60 39/104/32
f 41/178/33 21/194/40 22/185/40
f 58/182/57 57/183/8 23/179/3
f 22/185/40 23/179/3 42/184/33
f 19/191/39 39/104/32 61/189/60
f 39/104/32 19/191/39 20/105/40
f 23/179/3 43/176/34 42/184/33
