# Blender v2.78 (sub 0) OBJ File: 'Wall.blend'
# www.blender.org
mtllib Wall.mtl
o Plane
v -1.028867 -1.028867 -0.057735
v 1.028867 -1.028867 -0.057735
v -1.028867 1.028867 -0.057735
v 1.028867 1.028867 -0.057735
v -1.028867 -1.028867 0.788530
v 1.028867 -1.028867 0.788530
v -1.028867 1.028867 0.788531
v 1.028867 1.028867 0.788531
v -1.035354 0.666667 -0.070708
v -1.035354 0.333333 -0.070708
v -1.035354 -0.000000 -0.070708
v -1.035354 -0.333333 -0.070708
v -1.035354 -0.666667 -0.070708
v -0.666667 -1.035354 -0.070708
v -0.333333 -1.035354 -0.070708
v 0.000000 -1.035354 -0.070708
v 0.333333 -1.035354 -0.070708
v 0.666667 -1.035354 -0.070708
v 1.035354 -0.666667 -0.070708
v 1.035354 -0.333333 -0.070708
v 1.035354 0.000000 -0.070708
v 1.035354 0.333333 -0.070708
v 1.035354 0.666667 -0.070708
v 0.666667 1.035354 -0.070708
v 0.333333 1.035354 -0.070708
v -0.000000 1.035354 -0.070708
v -0.333333 1.035354 -0.070708
v -0.666667 1.035354 -0.070708
v -1.035354 0.666667 0.801504
v -1.035354 0.333333 0.801504
v -1.035354 -0.000000 0.801504
v -1.035354 -0.333333 0.801504
v -1.035354 -0.666667 0.801504
v -0.666667 -1.035354 0.801504
v -0.333333 -1.035354 0.801504
v 0.000000 -1.035354 0.801504
v 0.333333 -1.035354 0.801504
v 0.666667 -1.035354 0.801504
v 1.035354 -0.666667 0.801504
v 1.035354 -0.333333 0.801504
v 1.035354 -0.000000 0.801504
v 1.035354 0.333333 0.801504
v 1.035354 0.666667 0.801504
v 0.666667 1.035354 0.801504
v 0.333333 1.035354 0.801504
v -0.000000 1.035354 0.801504
v -0.333333 1.035354 0.801504
v -0.666667 1.035354 0.801504
v -1.035354 1.035354 0.121799
v -1.035354 1.035354 0.243599
v -1.035354 1.035354 0.365398
v -1.035354 1.035354 0.487197
v -1.035354 1.035354 0.608996
v 1.035354 1.035354 0.608996
v 1.035354 1.035354 0.487197
v 1.035354 1.035354 0.365398
v 1.035354 1.035354 0.243599
v 1.035354 1.035354 0.121799
v 1.035354 -1.035354 0.121799
v 1.035354 -1.035354 0.243599
v 1.035354 -1.035354 0.365398
v 1.035354 -1.035354 0.487197
v 1.035354 -1.035354 0.608996
v -1.035354 -1.035354 0.608996
v -1.035354 -1.035354 0.487197
v -1.035354 -1.035354 0.365398
v -1.035354 -1.035354 0.243598
v -1.035354 -1.035354 0.121799
v -0.666667 -0.666667 0.830796
v -0.666667 -0.333333 0.830796
v -0.666667 -0.000000 0.830796
v -0.666667 0.333333 0.830796
v -0.666667 0.666667 0.830796
v -0.333333 -0.666667 0.830796
v -0.333333 -0.333333 0.830796
v -0.333333 -0.000000 0.830796
v -0.333333 0.333333 0.830796
v -0.333333 0.666667 0.830796
v 0.000000 -0.666667 0.830796
v 0.000000 -0.333333 0.830796
v -0.000000 -0.000000 0.830796
v -0.000000 0.333333 0.830796
v -0.000000 0.666667 0.830796
v 0.333333 -0.666667 0.830796
v 0.333333 -0.333333 0.830796
v 0.333333 -0.000000 0.830796
v 0.333333 0.333333 0.830796
v 0.333333 0.666667 0.830796
v 0.666667 -0.666667 0.830796
v 0.666667 -0.333333 0.830796
v 0.666667 -0.000000 0.830796
v 0.666667 0.333333 0.830796
v 0.666667 0.666667 0.830796
v -0.666667 -0.666667 -0.100000
v -0.333333 -0.666667 -0.100000
v 0.000000 -0.666667 -0.100000
v 0.333333 -0.666667 -0.100000
v 0.666667 -0.666667 -0.100000
v -0.666667 -0.333333 -0.100000
v -0.333333 -0.333333 -0.100000
v 0.000000 -0.333333 -0.100000
v 0.333333 -0.333333 -0.100000
v 0.666667 -0.333333 -0.100000
v -0.666667 -0.000000 -0.100000
v -0.333333 -0.000000 -0.100000
v 0.000000 0.000000 -0.100000
v 0.333333 0.000000 -0.100000
v 0.666667 0.000000 -0.100000
v -0.666667 0.333333 -0.100000
v -0.333333 0.333333 -0.100000
v 0.000000 0.333333 -0.100000
v 0.333333 0.333333 -0.100000
v 0.666667 0.333333 -0.100000
v -0.666667 0.666667 -0.100000
v -0.333333 0.666667 -0.100000
v 0.000000 0.666667 -0.100000
v 0.333333 0.666667 -0.100000
v 0.666667 0.666667 -0.100000
vt 0.8333 0.8333
vt 0.9999 0.9999
vt 0.9999 0.8333
vt 0.8333 0.8333
vt 0.9999 0.9999
vt 0.8333 0.9999
vt 0.7960 0.6251
vt 0.8115 1.0051
vt 0.6505 1.0051
vt 0.3196 0.8110
vt 0.3196 0.6497
vt 0.0067 0.8110
vt 0.1593 0.6487
vt 0.1654 1.0043
vt 0.0018 0.7904
vt 0.1667 0.8333
vt 0.0001 0.9999
vt 0.0001 0.8333
vt 0.3334 0.8333
vt 0.1667 0.9999
vt 0.5000 0.8333
vt 0.3334 0.9999
vt 0.6666 0.8333
vt 0.5000 0.9999
vt 0.6666 0.9999
vt 0.0001 0.0001
vt 0.1667 0.1667
vt 0.0001 0.1667
vt 0.0001 0.3334
vt 0.1667 0.3334
vt 0.0001 0.5000
vt 0.1667 0.5000
vt 0.0001 0.6666
vt 0.1667 0.6666
vt 0.3334 0.0001
vt 0.1667 0.0001
vt 0.3334 0.1667
vt 0.3334 0.3334
vt 0.3334 0.5000
vt 0.3334 0.6666
vt 0.5000 0.0001
vt 0.5000 0.1667
vt 0.5000 0.3334
vt 0.5000 0.6666
vt 0.6666 0.0001
vt 0.6666 0.1667
vt 0.6666 0.3334
vt 0.5000 0.5000
vt 0.6666 0.5000
vt 0.6666 0.6666
vt 0.8333 0.0001
vt 0.8333 0.1667
vt 0.8333 0.5000
vt 0.8333 0.6666
vt 0.9999 0.0001
vt 0.9999 0.1667
vt 0.8333 0.3334
vt 0.9999 0.3334
vt 0.9999 0.5000
vt 0.9999 0.8333
vt 0.8333 0.1667
vt 0.9999 0.0001
vt 0.8333 0.0001
vt 0.9999 0.3334
vt 0.9999 0.1667
vt 0.8333 0.5000
vt 0.8333 0.3334
vt 0.9999 0.6666
vt 0.9999 0.5000
vt 0.8333 0.6666
vt 0.0001 0.0001
vt 0.1667 0.1667
vt 0.1667 0.0001
vt 0.3334 0.0001
vt 0.3334 0.1667
vt 0.5000 0.0001
vt 0.5000 0.1667
vt 0.6666 0.0001
vt 0.6666 0.1667
vt 0.0001 0.3334
vt 0.0001 0.1667
vt 0.1667 0.3334
vt 0.3334 0.3334
vt 0.5000 0.3334
vt 0.6666 0.3334
vt 0.1667 0.5000
vt 0.3334 0.5000
vt 0.5000 0.5000
vt 0.6666 0.5000
vt 0.0001 0.6666
vt 0.0001 0.5000
vt 0.1667 0.6666
vt 0.3334 0.6666
vt 0.5000 0.6666
vt 0.6666 0.6666
vt 0.0001 0.8333
vt 0.1667 0.8333
vt 0.3334 0.8333
vt 0.5000 0.8333
vt 0.0001 0.9999
vt 0.1667 0.9999
vt 0.3334 0.9999
vt 0.5000 0.9999
vt 0.6666 0.8333
vt 0.6666 0.9999
vt 0.2506 -0.0127
vt 0.3196 0.1657
vt 0.2069 -0.0127
vt 0.8333 0.9999
vt 0.0018 0.7588
vt 0.0018 0.7064
vt 0.1599 0.6498
vt 0.0043 0.6290
vt 0.4663 0.6568
vt 0.6366 0.6462
vt 0.1676 1.0051
vt 0.0018 0.8111
vt 0.0018 0.9158
vt 0.0018 0.8635
vt 0.0043 0.9932
vt 0.4896 1.0051
vt 0.3286 1.0051
vt 0.3146 0.6674
vt 1.0004 0.6489
vt 1.0026 0.7212
vt 1.0026 0.7702
vt 1.0026 0.8191
vt 0.9981 0.9919
vt 1.0026 0.9170
vt 1.0026 0.8680
vt 0.1195 -0.0127
vt 0.0758 -0.0127
vt 0.0067 0.1657
vt 0.0114 -0.0096
vt 0.0067 0.4884
vt 0.0067 0.6497
vt 0.3196 0.1657
vt 0.1632 -0.0127
vt 0.3150 -0.0096
vt 0.2506 -0.0127
vt 0.2069 -0.0127
vt 0.0067 0.3270
vt 0.0114 0.9863
vt 0.0758 0.9895
vt 0.1195 0.9895
vt 0.1632 0.9895
vt 0.3196 0.3270
vt 0.3196 0.4884
vt 0.3150 0.9863
vt 0.2506 0.9895
vt 0.2069 0.9895
vt 1.0008 0.8626
vt 1.0008 0.9127
vt 0.8117 1.0071
vt 0.9965 0.9891
vt 0.4861 1.0071
vt 0.3288 1.0071
vt 0.3128 0.6683
vt 0.7982 0.6263
vt 0.9996 0.8153
vt 1.0014 0.6472
vt 1.0033 0.7124
vt 0.9984 0.7597
vt 0.6520 1.0015
vt 0.0053 0.9891
vt 0.0026 0.9170
vt 0.0026 0.8502
vt 0.6372 0.6459
vt 0.4640 0.6571
vt 0.0018 0.7235
vt 0.0018 0.7289
vt 0.0049 0.6301
vt 0.9999 0.6666
vt 0.1195 0.9895
vt 0.0758 0.9895
vt 0.0067 0.8110
vt 0.0114 0.9863
vt 0.0067 0.4884
vt 0.0067 0.3270
vt 0.3196 0.4884
vt 0.3196 0.8110
vt 0.1632 0.9895
vt 0.3150 0.9863
vt 0.2506 0.9895
vt 0.2069 0.9895
vt 0.0067 0.6497
vt 0.0067 0.1657
vt 0.0114 -0.0096
vt 0.0758 -0.0127
vt 0.1195 -0.0127
vt 0.3196 0.6497
vt 0.3196 0.3270
vt 0.1632 -0.0127
vt 0.3150 -0.0096
vn 0.0343 0.0343 -0.9988
vn 0.5822 0.5822 -0.5675
vn 0.7307 0.0144 -0.6825
vn 0.0343 0.0343 0.9988
vn 0.5822 0.5822 0.5675
vn 0.0144 0.7307 0.6825
vn 0.0144 0.7307 -0.6825
vn 0.0000 0.7345 -0.6785
vn -0.7307 0.0144 -0.6825
vn -0.7345 0.0000 -0.6785
vn -0.7307 0.0144 0.6825
vn -0.0144 -0.7307 -0.6825
vn -0.0144 -0.7307 0.6825
vn -0.7071 -0.7071 0.0000
vn -0.0343 0.0343 0.9988
vn -0.5822 0.5822 0.5675
vn 0.0000 0.0396 0.9992
vn -0.0144 0.7307 0.6825
vn 0.0000 0.7345 0.6785
vn -0.5822 -0.5822 0.5675
vn -0.0343 -0.0343 0.9988
vn -0.7307 -0.0144 0.6825
vn -0.7345 0.0000 0.6785
vn -0.0396 0.0000 0.9992
vn 0.0000 -0.7345 0.6785
vn 0.0000 -0.0396 0.9992
vn 0.0000 0.0000 1.0000
vn 0.0144 -0.7307 0.6825
vn 0.0343 -0.0343 0.9988
vn 0.0396 0.0000 0.9992
vn 0.5822 -0.5822 0.5675
vn 0.7307 -0.0144 0.6825
vn 0.7345 0.0000 0.6785
vn 0.7307 0.0144 0.6825
vn 0.0343 -0.0343 -0.9988
vn 0.5822 -0.5822 -0.5675
vn 0.0144 -0.7307 -0.6825
vn 0.7345 0.0000 -0.6785
vn 0.7307 -0.0144 -0.6825
vn 0.0396 0.0000 -0.9992
vn -0.5822 -0.5822 -0.5675
vn -0.0343 -0.0343 -0.9988
vn 0.0000 -0.7345 -0.6785
vn 0.0000 -0.0396 -0.9992
vn -0.7307 -0.0144 -0.6825
vn -0.0396 0.0000 -0.9992
vn 0.0000 0.0000 -1.0000
vn -0.0343 0.0343 -0.9988
vn 0.0000 0.0396 -0.9992
vn -0.5822 0.5822 -0.5675
vn -0.0144 0.7307 -0.6825
vn 0.7070 -0.7070 -0.0175
vn 0.7071 -0.7071 0.0000
vn -0.7071 0.7071 0.0000
vn -0.7070 0.7070 0.0175
vn -0.7070 0.7070 -0.0175
vn 0.7070 0.7070 0.0175
vn 0.7071 0.7071 0.0000
vn 0.7070 0.7070 -0.0175
vn -0.7070 -0.7070 0.0175
vn -0.7070 -0.7070 -0.0175
vn 0.7070 -0.7070 0.0175
usemtl Material.001
s 1
f 118/1/1 4/2/2 23/3/3
f 93/4/4 8/5/5 44/6/6
f 44/7/6 24/8/7 25/9/8
f 9/10/9 10/11/10 29/12/11
f 14/13/12 34/14/13 66/15/14
f 73/16/15 7/17/16 29/18/11
f 78/19/17 48/20/18 73/16/15
f 83/21/17 47/22/19 78/19/17
f 88/23/17 46/24/19 83/21/17
f 93/4/4 45/25/19 88/23/17
f 5/26/20 69/27/21 33/28/22
f 69/27/21 32/29/23 33/28/22
f 70/30/24 31/31/23 32/29/23
f 71/32/24 30/33/23 31/31/23
f 72/34/24 29/18/11 30/33/23
f 35/35/25 69/27/21 34/36/13
f 74/37/26 70/30/24 69/27/21
f 75/38/27 71/32/24 70/30/24
f 76/39/27 72/34/24 71/32/24
f 77/40/27 73/16/15 72/34/24
f 36/41/25 74/37/26 35/35/25
f 79/42/26 75/38/27 74/37/26
f 80/43/27 76/39/27 75/38/27
f 76/39/27 82/44/27 77/40/27
f 82/44/27 78/19/17 77/40/27
f 37/45/25 79/42/26 36/41/25
f 84/46/26 80/43/27 79/42/26
f 85/47/27 81/48/27 80/43/27
f 86/49/27 82/44/27 81/48/27
f 87/50/27 83/21/17 82/44/27
f 38/51/28 84/46/26 37/45/25
f 89/52/29 85/47/27 84/46/26
f 85/47/27 91/53/30 86/49/27
f 91/53/30 87/50/27 86/49/27
f 92/54/30 88/23/17 87/50/27
f 6/55/31 89/52/29 38/51/28
f 39/56/32 90/57/30 89/52/29
f 40/58/33 91/53/30 90/57/30
f 41/59/33 92/54/30 91/53/30
f 92/54/30 43/60/34 93/4/4
f 98/61/35 2/62/36 18/63/37
f 98/61/35 20/64/38 19/65/39
f 108/66/40 20/64/38 103/67/40
f 108/66/40 22/68/38 21/69/38
f 118/1/1 22/68/38 113/70/40
f 1/71/41 94/72/42 14/73/12
f 94/72/42 15/74/43 14/73/12
f 95/75/44 16/76/43 15/74/43
f 96/77/44 17/78/43 16/76/43
f 97/79/44 18/63/37 17/78/43
f 12/80/10 94/72/42 13/81/45
f 99/82/46 95/75/44 94/72/42
f 100/83/47 96/77/44 95/75/44
f 101/84/47 97/79/44 96/77/44
f 102/85/47 98/61/35 97/79/44
f 12/80/10 104/86/46 99/82/46
f 104/86/46 100/83/47 99/82/46
f 105/87/47 101/84/47 100/83/47
f 106/88/47 102/85/47 101/84/47
f 107/89/47 103/67/40 102/85/47
f 10/90/10 104/86/46 11/91/10
f 109/92/46 105/87/47 104/86/46
f 110/93/47 106/88/47 105/87/47
f 111/94/47 107/89/47 106/88/47
f 112/95/47 108/66/40 107/89/47
f 9/96/9 109/92/46 10/90/10
f 114/97/48 110/93/47 109/92/46
f 115/98/49 111/94/47 110/93/47
f 116/99/49 112/95/47 111/94/47
f 112/95/47 118/1/1 113/70/40
f 3/100/50 114/97/48 9/96/9
f 28/101/51 115/98/49 114/97/48
f 27/102/8 116/99/49 115/98/49
f 26/103/8 117/104/49 116/99/49
f 25/105/8 118/1/1 117/104/49
f 59/106/52 19/107/39 60/108/53
f 118/1/1 24/109/7 4/2/2
f 93/4/4 43/60/34 8/5/5
f 52/110/54 53/111/55 48/112/18
f 7/113/16 48/112/18 53/111/55
f 46/114/19 45/115/19 25/9/8
f 48/112/18 28/116/51 51/117/54
f 51/117/54 52/110/54 48/112/18
f 49/118/56 50/119/54 28/116/51
f 28/116/51 3/120/50 49/118/56
f 25/9/8 26/121/8 46/114/19
f 27/122/8 28/116/51 47/123/19
f 50/119/54 51/117/54 28/116/51
f 47/123/19 28/116/51 48/112/18
f 44/7/6 8/124/5 54/125/57
f 55/126/58 56/127/58 44/7/6
f 44/7/6 54/125/57 55/126/58
f 47/123/19 46/114/19 27/122/8
f 26/121/8 27/122/8 46/114/19
f 4/128/2 24/8/7 58/129/59
f 57/130/58 58/129/59 24/8/7
f 44/7/6 56/127/58 24/8/7
f 25/9/8 45/115/19 44/7/6
f 57/130/58 24/8/7 56/127/58
f 65/131/14 64/132/60 33/133/22
f 5/134/20 33/133/22 64/132/60
f 31/135/23 30/136/23 10/11/10
f 33/133/22 13/137/45 66/138/14
f 66/138/14 65/131/14 33/133/22
f 1/139/41 68/140/61 13/137/45
f 67/141/14 66/138/14 13/137/45
f 32/142/23 13/137/45 33/133/22
f 29/12/11 7/143/16 53/144/55
f 52/145/54 51/146/54 29/12/11
f 29/12/11 53/144/55 52/145/54
f 32/142/23 12/147/10 13/137/45
f 13/137/45 68/140/61 67/141/14
f 11/148/10 12/147/10 31/135/23
f 3/149/50 9/10/9 49/150/56
f 10/11/10 11/148/10 31/135/23
f 32/142/23 31/135/23 12/147/10
f 29/12/11 51/146/54 9/10/9
f 50/151/54 49/150/56 9/10/9
f 9/10/9 51/146/54 50/151/54
f 30/136/23 29/12/11 10/11/10
f 62/152/53 63/153/62 38/154/28
f 6/155/31 38/154/28 63/153/62
f 36/156/25 35/157/25 15/158/43
f 38/154/28 18/159/37 61/160/53
f 61/160/53 62/152/53 38/154/28
f 2/161/36 59/162/52 18/159/37
f 60/163/53 61/160/53 18/159/37
f 37/164/25 18/159/37 38/154/28
f 34/14/13 5/165/20 64/166/60
f 65/167/14 66/15/14 34/14/13
f 34/14/13 64/166/60 65/167/14
f 37/164/25 36/156/25 17/168/43
f 18/159/37 59/162/52 60/163/53
f 15/158/43 16/169/43 36/156/25
f 17/168/43 18/159/37 37/164/25
f 35/157/25 34/14/13 15/158/43
f 66/15/14 67/170/14 14/13/12
f 68/171/61 1/172/41 14/13/12
f 16/169/43 17/168/43 36/156/25
f 68/171/61 14/13/12 67/170/14
f 34/14/13 14/13/12 15/158/43
f 73/16/15 48/20/18 7/17/16
f 78/19/17 47/22/19 48/20/18
f 83/21/17 46/24/19 47/22/19
f 88/23/17 45/25/19 46/24/19
f 93/4/4 44/6/6 45/25/19
f 5/26/20 34/36/13 69/27/21
f 69/27/21 70/30/24 32/29/23
f 70/30/24 71/32/24 31/31/23
f 71/32/24 72/34/24 30/33/23
f 72/34/24 73/16/15 29/18/11
f 35/35/25 74/37/26 69/27/21
f 74/37/26 75/38/27 70/30/24
f 75/38/27 76/39/27 71/32/24
f 76/39/27 77/40/27 72/34/24
f 77/40/27 78/19/17 73/16/15
f 36/41/25 79/42/26 74/37/26
f 79/42/26 80/43/27 75/38/27
f 80/43/27 81/48/27 76/39/27
f 76/39/27 81/48/27 82/44/27
f 82/44/27 83/21/17 78/19/17
f 37/45/25 84/46/26 79/42/26
f 84/46/26 85/47/27 80/43/27
f 85/47/27 86/49/27 81/48/27
f 86/49/27 87/50/27 82/44/27
f 87/50/27 88/23/17 83/21/17
f 38/51/28 89/52/29 84/46/26
f 89/52/29 90/57/30 85/47/27
f 85/47/27 90/57/30 91/53/30
f 91/53/30 92/54/30 87/50/27
f 92/54/30 93/4/4 88/23/17
f 6/55/31 39/56/32 89/52/29
f 39/56/32 40/58/33 90/57/30
f 40/58/33 41/59/33 91/53/30
f 41/59/33 42/173/33 92/54/30
f 92/54/30 42/173/33 43/60/34
f 98/61/35 19/65/39 2/62/36
f 98/61/35 103/67/40 20/64/38
f 108/66/40 21/69/38 20/64/38
f 108/66/40 113/70/40 22/68/38
f 118/1/1 23/3/3 22/68/38
f 1/71/41 13/81/45 94/72/42
f 94/72/42 95/75/44 15/74/43
f 95/75/44 96/77/44 16/76/43
f 96/77/44 97/79/44 17/78/43
f 97/79/44 98/61/35 18/63/37
f 12/80/10 99/82/46 94/72/42
f 99/82/46 100/83/47 95/75/44
f 100/83/47 101/84/47 96/77/44
f 101/84/47 102/85/47 97/79/44
f 102/85/47 103/67/40 98/61/35
f 12/80/10 11/91/10 104/86/46
f 104/86/46 105/87/47 100/83/47
f 105/87/47 106/88/47 101/84/47
f 106/88/47 107/89/47 102/85/47
f 107/89/47 108/66/40 103/67/40
f 10/90/10 109/92/46 104/86/46
f 109/92/46 110/93/47 105/87/47
f 110/93/47 111/94/47 106/88/47
f 111/94/47 112/95/47 107/89/47
f 112/95/47 113/70/40 108/66/40
f 9/96/9 114/97/48 109/92/46
f 114/97/48 115/98/49 110/93/47
f 115/98/49 116/99/49 111/94/47
f 116/99/49 117/104/49 112/95/47
f 112/95/47 117/104/49 118/1/1
f 3/100/50 28/101/51 114/97/48
f 28/101/51 27/102/8 115/98/49
f 27/102/8 26/103/8 116/99/49
f 26/103/8 25/105/8 117/104/49
f 25/105/8 24/109/7 118/1/1
f 55/174/58 54/175/57 43/176/34
f 8/177/5 43/176/34 54/175/57
f 41/178/33 40/179/33 21/180/38
f 43/176/34 23/181/3 56/182/58
f 56/182/58 55/174/58 43/176/34
f 4/183/2 58/184/59 23/181/3
f 57/185/58 56/182/58 23/181/3
f 42/186/33 23/181/3 43/176/34
f 39/187/32 6/188/31 63/189/62
f 63/189/62 62/190/53 39/187/32
f 41/178/33 22/191/38 42/186/33
f 58/184/59 57/185/58 23/181/3
f 22/191/38 23/181/3 42/186/33
f 19/107/39 20/192/38 39/187/32
f 21/180/38 22/191/38 41/178/33
f 40/179/33 20/192/38 21/180/38
f 61/193/53 60/108/53 19/107/39
f 39/187/32 62/190/53 61/193/53
f 19/107/39 39/187/32 61/193/53
f 59/106/52 2/194/36 19/107/39
f 39/187/32 20/192/38 40/179/33
