# Blender v2.78 (sub 0) OBJ File: 'SkyBox.blend'
# www.blender.org
mtllib SkyBox.mtl
o Sky_Cube
v 0.500000 0.500000 -0.500000
v -0.500000 0.499999 -0.500000
v -0.499999 -0.500000 -0.500000
v 0.500000 -0.500000 -0.500000
v -0.500000 0.500000 0.500000
v 0.500000 -0.500000 0.500000
v -0.499999 -0.500000 0.500000
v 0.500000 0.500000 0.500000
vt 0.5000 0.3334
vt 0.2500 0.0001
vt 0.5000 0.0001
vt 0.9999 0.3334
vt 0.7500 0.6667
vt 0.7500 0.3334
vt 0.2500 0.6667
vt 0.5000 0.6667
vt 0.0001 0.6667
vt 0.2500 0.3334
vt 0.2500 0.9999
vt 0.9999 0.6667
vt 0.0001 0.3334
vt 0.5000 0.9999
vn 0.0000 0.0000 1.0000
vn -1.0000 -0.0000 0.0000
vn 1.0000 0.0000 -0.0000
vn -0.0000 1.0000 -0.0000
vn 0.0000 -1.0000 -0.0000
vn -0.0000 0.0000 -1.0000
usemtl Material
s off
f 2/1/1 4/2/1 1/3/1
f 4/4/2 8/5/2 1/6/2
f 7/7/3 2/1/3 5/8/3
f 6/9/4 3/10/4 7/7/4
f 5/8/5 1/6/5 8/5/5
f 5/8/6 6/11/6 7/7/6
f 2/1/1 3/10/1 4/2/1
f 4/4/2 6/12/2 8/5/2
f 7/7/3 3/10/3 2/1/3
f 6/9/4 4/13/4 3/10/4
f 5/8/5 2/1/5 1/6/5
f 5/8/6 8/14/6 6/11/6
